<?xml version="1.0" encoding="utf-8"?>
<!-- Generator: Adobe Illustrator 24.0.0, SVG Export Plug-In . SVG Version: 6.00 Build 0)  -->
<svg version="1.1" id="Capa_1" xmlns="http://www.w3.org/2000/svg" xmlns:xlink="http://www.w3.org/1999/xlink" x="0px" y="0px"
	 viewBox="0 0 311.3 122" style="enable-background:new 0 0 311.3 122;" xml:space="preserve">
<style type="text/css">
	.st0{fill:#405C98;}
</style>
<title>logo_1</title>
<g id="Capa_2_1_">
	<g id="Capa_1-2">
		<polygon class="st0" points="27.2,73.1 1.5,73.1 0,81.5 7.6,81.5 2.1,112.3 12.8,112.3 18.2,81.5 24.4,81.5 		"/>
		<path class="st0" d="M33.2,81.1c2.9,0,5.3-2.3,5.4-5.3s-2.3-5.3-5.3-5.4c-2.9,0-5.3,2.3-5.4,5.3c0,0,0,0,0,0
			C27.9,78.7,30.2,81.1,33.2,81.1C33.1,81.1,33.1,81.1,33.2,81.1z"/>
		<polygon class="st0" points="26,82.6 20.7,112.3 31.4,112.3 36.6,82.6 		"/>
		<path class="st0" d="M72.6,82.1c-3.6,0.1-6.9,2.1-8.6,5.3c-0.3-3.1-2.1-5.3-6-5.3c-6.1,0-8.7,5.6-8.7,5.6l-1.3-5h-7.8l-5.2,29.7
			h10.6l2.8-15.9c0,0,2.1-5.8,4.1-5.8c0.8,0,0.7,1,0.5,1.8l-3.5,20h10.7l2.9-16c0,0,2.1-5.7,4-5.7c0.8,0,0.7,1,0.6,1.8L64,112.3
			h10.6l3.7-20.8C79.2,86.4,78.1,82.1,72.6,82.1z"/>
		<path class="st0" d="M94.3,82.1c-8.7,0-14.9,7.2-14.9,19.2c0,9.6,6.7,11.7,12.4,11.7c3.1,0,6.2-0.6,9.1-1.6l1.4-8.2
			c0,0-6,1.7-8.9,1.7c-2.3,0-3.7-0.4-3.7-2.9c9.8-0.4,15.7-2.8,15.7-10.3C105.5,84.9,100.4,82.1,94.3,82.1z M89.8,96.2
			c0.5-5,2.2-7.6,4.3-7.6c1,0,1.7,0.7,1.7,2.6C95.9,94.3,94.2,95.8,89.8,96.2z"/>
		<path class="st0" d="M114.6,81.2c1.8,0,3.3-1.5,3.3-3.3c0,0,0,0,0-0.1c0.1-1.8-1.3-3.3-3.1-3.4s-3.3,1.3-3.4,3.1
			c0,0.1,0,0.2,0,0.4C111.3,79.7,112.8,81.2,114.6,81.2C114.6,81.2,114.6,81.2,114.6,81.2z"/>
		<polygon class="st0" points="106.3,112.3 111.6,112.3 116.3,85.3 111,85.3 		"/>
		<path class="st0" d="M130.6,112.3h5.4l3.5-19.8c0.8-4.2-0.3-7.8-4.8-7.8c-5.5,0-8.8,5.6-8.8,5.6l-0.1-5.1h-4.2l-4.8,27.1h5.3
			l2.9-16.6c0,0,4.2-6.3,7.7-6.3c1.7,0,1.6,1.8,1.3,3.7L130.6,112.3z"/>
		<path class="st0" d="M156.3,85.3h-4.9l0.6-2.9c0.4-2.2,1.5-3.2,3.3-3.2c1.5,0.2,2.9,0.6,4.3,1.2l0.7-4c-1.7-0.9-3.5-1.3-5.4-1.4
			c-4.2,0-7.2,1.7-8.3,7.4l-0.5,2.8h-3.3l-0.7,3.8h3.3l-4,22.6c-0.7,3.9-2.4,5.9-6.7,6.3l-0.7,4.1c8.6,0,11.5-3.4,12.8-10.4l4-22.5
			h4.2L156.3,85.3z"/>
		<path class="st0" d="M166.8,84.8c-3.2-0.2-6.3,1.2-8.3,3.7c-3.1,3.7-4.7,9.8-4.7,14.9c0,7.4,3.9,9.5,8.3,9.5
			c3.7,0.1,7.2-1.7,9.2-4.8c2.5-4.2,3.8-9.1,3.8-14C175.1,87.1,171.2,84.8,166.8,84.8z M167.4,104.9c-1.1,2.4-2.8,4-4.8,4
			s-3.5-1.4-3.5-5.7s1.9-14.6,7.2-14.6c2.3,0,3.5,1.3,3.5,5.2C169.8,97.6,168.9,101.4,167.4,104.9z"/>
		<path class="st0" d="M192.8,85.5c-0.8-0.5-1.7-0.8-2.7-0.7c-4.1,0-5.4,5.2-5.4,5.2l-0.1-4.7h-3.7l-4.8,27.1h5.3l2.9-16.6
			c0,0,2.2-5.8,5.2-5.8c0.8,0,1.6,0.2,2.3,0.6L192.8,85.5z"/>
		<path class="st0" d="M219.6,84.8c-3.9,0-6.8,3.8-7.9,5.6c0.1-3.3-1-5.6-4.6-5.6c-4.7,0-7.8,5.6-7.8,5.6l-0.1-5.1h-4.2l-4.8,27.1
			h5.3l2.9-16.6c0,0,3.7-6.3,6.7-6.3c1.4,0,1.2,1.8,0.9,3.7l-3.4,19.2h5.3l3-16.6c0,0,3.7-6.3,6.7-6.3c1.4,0,1.1,1.8,0.8,3.7
			l-3.4,19.2h5.3l3.5-19.8C224.6,88.1,223.8,84.8,219.6,84.8z"/>
		<path class="st0" d="M243.4,87c-1.2-1.5-3.1-2.3-5-2.2c-8.7,0-12.1,10.8-12.1,18.8c0,7,3.1,9.2,6.6,9.2c4.3,0,6.5-4.2,6.5-4.2
			l0.3,3.7h3.9l4.8-27.1h-3.4L243.4,87z M240,102.8c0,0-2.9,5.8-5.9,5.8c-1.5,0-2.4-1.4-2.4-4.9c0-5,1.9-14.6,7-14.6
			c1.3-0.1,2.5,0.4,3.4,1.2L240,102.8z"/>
		<path class="st0" d="M255.8,106l3-16.9h4.2l1.3-3.8h-4.9l1.5-8.2l-5.2,2l-1.6,6.1h-3.3l-0.7,3.8h3.3l-3,17
			c-0.8,4.4,0.7,6.8,5.1,6.8c1.6-0.1,3.3-0.4,4.8-0.9l0.8-4.2c-1.2,0.3-2.5,0.6-3.8,0.8C255.7,108.5,255.5,107.6,255.8,106z"/>
		<path class="st0" d="M270.6,74.6c-1.8,0-3.2,1.4-3.3,3.2c0,0,0,0.1,0,0.1c0,1.8,1.5,3.3,3.3,3.3c1.8,0,3.3-1.5,3.3-3.3l0,0
			C273.9,76.1,272.5,74.6,270.6,74.6C270.6,74.6,270.6,74.6,270.6,74.6z"/>
		<polygon class="st0" points="262.3,112.3 267.6,112.3 272.3,85.3 267,85.3 		"/>
		<path class="st0" d="M278.8,103.1c0-4.2,1.7-10.4,3.4-12.3c0.8-1.1,2.1-1.7,3.4-1.7c1.9,0,4.5,1.6,4.5,1.6l0.8-4.3
			c-1.6-1.2-3.5-1.8-5.4-1.7c-3.4,0-6.6,1.8-8.3,4.7c-2.5,3.7-3.7,9.3-3.7,14.1c0,7.8,4.5,9.3,7.5,9.3c1.9,0,3.8-0.3,5.6-1.1
			l0.8-4.9c-1.7,0.8-3.6,1.3-5.5,1.5C279.8,108.3,278.8,107.1,278.8,103.1z"/>
		<path class="st0" d="M307.9,85.3l-1.5,1.7c-1.2-1.5-3.1-2.3-5-2.2c-8.7,0-12.1,10.8-12.1,18.8c0,7,3.1,9.2,6.6,9.2
			c4.3,0,6.5-4.2,6.5-4.2l0.3,3.7h3.9l4.7-27.1L307.9,85.3z M302.9,102.8c0,0-2.9,5.8-5.9,5.8c-1.5,0-2.5-1.4-2.5-4.9
			c0-5,1.9-14.6,7-14.6c1.3-0.1,2.5,0.4,3.4,1.2L302.9,102.8z"/>
		<path class="st0" d="M242.7,53.3l-0.1-0.1L242.7,53.3z"/>
		<path class="st0" d="M235.3,81.4h6.2c0,0,7.2-6.9,11.4-9c3.4-1.7,4.7-3.2,9.5-2.7c18.7,6.5,39.2-3.4,45.7-22.2
			s-3.4-39.2-22.2-45.7s-39.2,3.4-45.7,22.2c-3.4,9.7-2.4,20.3,2.6,29.3l-0.1-0.1l0.1,0.1c0.9,1.5,1.8,3,2.9,4.4
			c0.8,2.6,0.6,5.4-0.7,7.8C242.1,71.1,238.9,76.3,235.3,81.4z M244.6,36c0-16.3,13.2-29.5,29.5-29.6c16.3,0,29.5,13.2,29.6,29.5
			s-13.2,29.5-29.5,29.6c0,0,0,0,0,0C257.8,65.5,244.6,52.3,244.6,36C244.6,36,244.6,36,244.6,36z"/>
		<polygon class="st0" points="270.9,49.4 290.8,21.2 290,20.5 268.9,41.7 263.6,37.9 259.1,37.9 267,49.4 		"/>
	</g>
</g>
</svg>
